<svg xmlns="http://www.w3.org/2000/svg" xmlns:xlink="http://www.w3.org/1999/xlink" zoomAndPan="magnify" preserveAspectRatio="xMidYMid meet" version="1.0" viewBox="100.78 123.76 1160.43 283.18"><defs><g/></defs><g fill="#ff00ff" fill-opacity="1"><g transform="translate(95.417431, 230.996755)"><g><path d="M 91.15625 -21.453125 L 91.15625 -107.234375 L 112.59375 -107.234375 L 112.59375 -21.453125 C 112.59375 -17.515625 111.628906 -13.914062 109.703125 -10.65625 C 107.785156 -7.394531 105.195312 -4.800781 101.9375 -2.875 C 98.675781 -0.957031 95.082031 0 91.15625 0 L 26.8125 0 C 22.875 0 19.273438 -0.957031 16.015625 -2.875 C 12.753906 -4.800781 10.160156 -7.394531 8.234375 -10.65625 C 6.316406 -13.914062 5.359375 -17.515625 5.359375 -21.453125 L 5.359375 -107.234375 L 26.8125 -107.234375 L 26.8125 -21.453125 L 48.25 -21.453125 L 48.25 -107.234375 L 69.703125 -107.234375 L 69.703125 -21.453125 Z M 91.15625 -21.453125 "/></g></g></g><g fill="#ff00ff" fill-opacity="1"><g transform="translate(232.397872, 230.996755)"><g><path d="M 112.59375 -107.234375 L 112.59375 -85.796875 L 26.8125 -85.796875 L 26.8125 -64.34375 L 112.59375 -64.34375 L 112.59375 -42.890625 L 26.8125 -42.890625 L 26.8125 -21.453125 L 112.59375 -21.453125 L 112.59375 0 L 26.8125 0 C 22.875 0 19.273438 -0.957031 16.015625 -2.875 C 12.753906 -4.800781 10.160156 -7.394531 8.234375 -10.65625 C 6.316406 -13.914062 5.359375 -17.515625 5.359375 -21.453125 L 5.359375 -85.796875 C 5.359375 -89.722656 6.316406 -93.316406 8.234375 -96.578125 C 10.160156 -99.835938 12.753906 -102.425781 16.015625 -104.34375 C 19.273438 -106.269531 22.875 -107.234375 26.8125 -107.234375 Z M 112.59375 -107.234375 "/></g></g></g><g fill="#ff00ff" fill-opacity="1"><g transform="translate(369.378313, 230.996755)"><g><path d="M 112.59375 -85.796875 L 112.59375 -64.34375 C 112.59375 -61.394531 111.539062 -58.867188 109.4375 -56.765625 C 107.34375 -54.671875 104.820312 -53.625 101.875 -53.625 C 104.820312 -53.625 107.34375 -52.570312 109.4375 -50.46875 C 111.539062 -48.363281 112.59375 -45.835938 112.59375 -42.890625 L 112.59375 -21.453125 C 112.59375 -17.609375 111.628906 -14.050781 109.703125 -10.78125 C 107.785156 -7.519531 105.21875 -4.90625 102 -2.9375 C 98.789062 -0.976562 95.175781 0 91.15625 0 L 5.359375 0 L 5.359375 -107.234375 L 91.15625 -107.234375 C 95.175781 -107.234375 98.789062 -106.25 102 -104.28125 C 105.21875 -102.320312 107.785156 -99.734375 109.703125 -96.515625 C 111.628906 -93.296875 112.59375 -89.722656 112.59375 -85.796875 Z M 91.15625 -85.796875 L 26.8125 -85.796875 L 26.8125 -64.34375 L 91.15625 -64.34375 Z M 26.8125 -21.453125 L 91.15625 -21.453125 L 91.15625 -42.890625 L 26.8125 -42.890625 Z M 26.8125 -21.453125 "/></g></g></g><g fill="#ff00ff" fill-opacity="1"><g transform="translate(506.358762, 230.996755)"><g/></g></g><g fill="#ff00ff" fill-opacity="1"><g transform="translate(584.366043, 230.996755)"><g><path d="M 112.59375 -107.234375 L 112.59375 -85.796875 L 26.8125 -85.796875 L 26.8125 -64.34375 L 91.15625 -64.34375 C 95.082031 -64.34375 98.675781 -63.378906 101.9375 -61.453125 C 105.195312 -59.535156 107.785156 -56.945312 109.703125 -53.6875 C 111.628906 -50.425781 112.59375 -46.828125 112.59375 -42.890625 L 112.59375 -21.453125 C 112.59375 -17.515625 111.628906 -13.914062 109.703125 -10.65625 C 107.785156 -7.394531 105.195312 -4.800781 101.9375 -2.875 C 98.675781 -0.957031 95.082031 0 91.15625 0 L 5.359375 0 L 5.359375 -21.453125 L 91.15625 -21.453125 L 91.15625 -42.890625 L 26.8125 -42.890625 C 22.875 -42.890625 19.273438 -43.847656 16.015625 -45.765625 C 12.753906 -47.691406 10.160156 -50.285156 8.234375 -53.546875 C 6.316406 -56.804688 5.359375 -60.40625 5.359375 -64.34375 L 5.359375 -85.796875 C 5.359375 -89.722656 6.316406 -93.316406 8.234375 -96.578125 C 10.160156 -99.835938 12.753906 -102.425781 16.015625 -104.34375 C 19.273438 -106.269531 22.875 -107.234375 26.8125 -107.234375 Z M 112.59375 -107.234375 "/></g></g></g><g fill="#ff00ff" fill-opacity="1"><g transform="translate(721.346469, 230.996755)"><g><path d="M 26.8125 -107.234375 L 91.15625 -107.234375 C 95.082031 -107.234375 98.675781 -106.269531 101.9375 -104.34375 C 105.195312 -102.425781 107.785156 -99.835938 109.703125 -96.578125 C 111.628906 -93.316406 112.59375 -89.722656 112.59375 -85.796875 L 112.59375 0 L 91.15625 0 L 91.15625 -85.796875 L 69.703125 -85.796875 L 69.703125 0 L 48.25 0 L 48.25 -85.796875 L 26.8125 -85.796875 L 26.8125 0 L 5.359375 0 L 5.359375 -85.796875 C 5.359375 -89.722656 6.316406 -93.316406 8.234375 -96.578125 C 10.160156 -99.835938 12.753906 -102.425781 16.015625 -104.34375 C 19.273438 -106.269531 22.875 -107.234375 26.8125 -107.234375 Z M 26.8125 -107.234375 "/></g></g></g><g fill="#ff00ff" fill-opacity="1"><g transform="translate(858.326947, 230.996755)"><g><path d="M 26.8125 -107.234375 L 91.15625 -107.234375 C 95.082031 -107.234375 98.675781 -106.269531 101.9375 -104.34375 C 105.195312 -102.425781 107.785156 -99.835938 109.703125 -96.578125 C 111.628906 -93.316406 112.59375 -89.722656 112.59375 -85.796875 L 112.59375 0 L 91.15625 0 L 91.15625 -42.890625 L 26.8125 -42.890625 L 26.8125 0 L 5.359375 0 L 5.359375 -85.796875 C 5.359375 -89.722656 6.316406 -93.316406 8.234375 -96.578125 C 10.160156 -99.835938 12.753906 -102.425781 16.015625 -104.34375 C 19.273438 -106.269531 22.875 -107.234375 26.8125 -107.234375 Z M 26.8125 -85.796875 L 26.8125 -64.34375 L 91.15625 -64.34375 L 91.15625 -85.796875 Z M 26.8125 -85.796875 "/></g></g></g><g fill="#ff00ff" fill-opacity="1"><g transform="translate(995.307328, 230.996755)"><g><path d="M 112.59375 -85.796875 L 112.59375 -64.34375 C 112.59375 -60.40625 111.628906 -56.804688 109.703125 -53.546875 C 107.785156 -50.285156 105.195312 -47.691406 101.9375 -45.765625 C 98.675781 -43.847656 95.082031 -42.890625 91.15625 -42.890625 L 69.703125 -42.890625 L 91.15625 -21.453125 L 112.59375 -21.453125 L 112.59375 0 L 86.859375 0 C 83.828125 0 81.238281 -1.070312 79.09375 -3.21875 L 39.40625 -42.890625 L 26.8125 -42.890625 L 26.8125 0 L 5.359375 0 L 5.359375 -107.234375 L 91.15625 -107.234375 C 95.082031 -107.234375 98.675781 -106.269531 101.9375 -104.34375 C 105.195312 -102.425781 107.785156 -99.835938 109.703125 -96.578125 C 111.628906 -93.316406 112.59375 -89.722656 112.59375 -85.796875 Z M 91.15625 -85.796875 L 26.8125 -85.796875 L 26.8125 -64.34375 L 91.15625 -64.34375 Z M 91.15625 -85.796875 "/></g></g></g><g fill="#ff00ff" fill-opacity="1"><g transform="translate(1132.287807, 230.996755)"><g><path d="M 112.59375 -107.234375 L 112.59375 -85.796875 L 69.703125 -85.796875 L 69.703125 0 L 48.25 0 L 48.25 -85.796875 L 5.359375 -85.796875 L 5.359375 -107.234375 Z M 112.59375 -107.234375 "/></g></g></g><g fill="#00ffff" fill-opacity="1"><g transform="translate(111.743418, 234.765913)"><g><path d="M 91.15625 -21.453125 L 91.15625 -107.234375 L 112.59375 -107.234375 L 112.59375 -21.453125 C 112.59375 -17.515625 111.628906 -13.914062 109.703125 -10.65625 C 107.785156 -7.394531 105.195312 -4.800781 101.9375 -2.875 C 98.675781 -0.957031 95.082031 0 91.15625 0 L 26.8125 0 C 22.875 0 19.273438 -0.957031 16.015625 -2.875 C 12.753906 -4.800781 10.160156 -7.394531 8.234375 -10.65625 C 6.316406 -13.914062 5.359375 -17.515625 5.359375 -21.453125 L 5.359375 -107.234375 L 26.8125 -107.234375 L 26.8125 -21.453125 L 48.25 -21.453125 L 48.25 -107.234375 L 69.703125 -107.234375 L 69.703125 -21.453125 Z M 91.15625 -21.453125 "/></g></g></g><g fill="#00ffff" fill-opacity="1"><g transform="translate(248.723859, 234.765913)"><g><path d="M 112.59375 -107.234375 L 112.59375 -85.796875 L 26.8125 -85.796875 L 26.8125 -64.34375 L 112.59375 -64.34375 L 112.59375 -42.890625 L 26.8125 -42.890625 L 26.8125 -21.453125 L 112.59375 -21.453125 L 112.59375 0 L 26.8125 0 C 22.875 0 19.273438 -0.957031 16.015625 -2.875 C 12.753906 -4.800781 10.160156 -7.394531 8.234375 -10.65625 C 6.316406 -13.914062 5.359375 -17.515625 5.359375 -21.453125 L 5.359375 -85.796875 C 5.359375 -89.722656 6.316406 -93.316406 8.234375 -96.578125 C 10.160156 -99.835938 12.753906 -102.425781 16.015625 -104.34375 C 19.273438 -106.269531 22.875 -107.234375 26.8125 -107.234375 Z M 112.59375 -107.234375 "/></g></g></g><g fill="#00ffff" fill-opacity="1"><g transform="translate(385.7043, 234.765913)"><g><path d="M 112.59375 -85.796875 L 112.59375 -64.34375 C 112.59375 -61.394531 111.539062 -58.867188 109.4375 -56.765625 C 107.34375 -54.671875 104.820312 -53.625 101.875 -53.625 C 104.820312 -53.625 107.34375 -52.570312 109.4375 -50.46875 C 111.539062 -48.363281 112.59375 -45.835938 112.59375 -42.890625 L 112.59375 -21.453125 C 112.59375 -17.609375 111.628906 -14.050781 109.703125 -10.78125 C 107.785156 -7.519531 105.21875 -4.90625 102 -2.9375 C 98.789062 -0.976562 95.175781 0 91.15625 0 L 5.359375 0 L 5.359375 -107.234375 L 91.15625 -107.234375 C 95.175781 -107.234375 98.789062 -106.25 102 -104.28125 C 105.21875 -102.320312 107.785156 -99.734375 109.703125 -96.515625 C 111.628906 -93.296875 112.59375 -89.722656 112.59375 -85.796875 Z M 91.15625 -85.796875 L 26.8125 -85.796875 L 26.8125 -64.34375 L 91.15625 -64.34375 Z M 26.8125 -21.453125 L 91.15625 -21.453125 L 91.15625 -42.890625 L 26.8125 -42.890625 Z M 26.8125 -21.453125 "/></g></g></g><g fill="#00ffff" fill-opacity="1"><g transform="translate(522.684748, 234.765913)"><g/></g></g><g fill="#00ffff" fill-opacity="1"><g transform="translate(600.69203, 234.765913)"><g><path d="M 112.59375 -107.234375 L 112.59375 -85.796875 L 26.8125 -85.796875 L 26.8125 -64.34375 L 91.15625 -64.34375 C 95.082031 -64.34375 98.675781 -63.378906 101.9375 -61.453125 C 105.195312 -59.535156 107.785156 -56.945312 109.703125 -53.6875 C 111.628906 -50.425781 112.59375 -46.828125 112.59375 -42.890625 L 112.59375 -21.453125 C 112.59375 -17.515625 111.628906 -13.914062 109.703125 -10.65625 C 107.785156 -7.394531 105.195312 -4.800781 101.9375 -2.875 C 98.675781 -0.957031 95.082031 0 91.15625 0 L 5.359375 0 L 5.359375 -21.453125 L 91.15625 -21.453125 L 91.15625 -42.890625 L 26.8125 -42.890625 C 22.875 -42.890625 19.273438 -43.847656 16.015625 -45.765625 C 12.753906 -47.691406 10.160156 -50.285156 8.234375 -53.546875 C 6.316406 -56.804688 5.359375 -60.40625 5.359375 -64.34375 L 5.359375 -85.796875 C 5.359375 -89.722656 6.316406 -93.316406 8.234375 -96.578125 C 10.160156 -99.835938 12.753906 -102.425781 16.015625 -104.34375 C 19.273438 -106.269531 22.875 -107.234375 26.8125 -107.234375 Z M 112.59375 -107.234375 "/></g></g></g><g fill="#00ffff" fill-opacity="1"><g transform="translate(737.672456, 234.765913)"><g><path d="M 26.8125 -107.234375 L 91.15625 -107.234375 C 95.082031 -107.234375 98.675781 -106.269531 101.9375 -104.34375 C 105.195312 -102.425781 107.785156 -99.835938 109.703125 -96.578125 C 111.628906 -93.316406 112.59375 -89.722656 112.59375 -85.796875 L 112.59375 0 L 91.15625 0 L 91.15625 -85.796875 L 69.703125 -85.796875 L 69.703125 0 L 48.25 0 L 48.25 -85.796875 L 26.8125 -85.796875 L 26.8125 0 L 5.359375 0 L 5.359375 -85.796875 C 5.359375 -89.722656 6.316406 -93.316406 8.234375 -96.578125 C 10.160156 -99.835938 12.753906 -102.425781 16.015625 -104.34375 C 19.273438 -106.269531 22.875 -107.234375 26.8125 -107.234375 Z M 26.8125 -107.234375 "/></g></g></g><g fill="#00ffff" fill-opacity="1"><g transform="translate(874.652934, 234.765913)"><g><path d="M 26.8125 -107.234375 L 91.15625 -107.234375 C 95.082031 -107.234375 98.675781 -106.269531 101.9375 -104.34375 C 105.195312 -102.425781 107.785156 -99.835938 109.703125 -96.578125 C 111.628906 -93.316406 112.59375 -89.722656 112.59375 -85.796875 L 112.59375 0 L 91.15625 0 L 91.15625 -42.890625 L 26.8125 -42.890625 L 26.8125 0 L 5.359375 0 L 5.359375 -85.796875 C 5.359375 -89.722656 6.316406 -93.316406 8.234375 -96.578125 C 10.160156 -99.835938 12.753906 -102.425781 16.015625 -104.34375 C 19.273438 -106.269531 22.875 -107.234375 26.8125 -107.234375 Z M 26.8125 -85.796875 L 26.8125 -64.34375 L 91.15625 -64.34375 L 91.15625 -85.796875 Z M 26.8125 -85.796875 "/></g></g></g><g fill="#00ffff" fill-opacity="1"><g transform="translate(1011.633315, 234.765913)"><g><path d="M 112.59375 -85.796875 L 112.59375 -64.34375 C 112.59375 -60.40625 111.628906 -56.804688 109.703125 -53.546875 C 107.785156 -50.285156 105.195312 -47.691406 101.9375 -45.765625 C 98.675781 -43.847656 95.082031 -42.890625 91.15625 -42.890625 L 69.703125 -42.890625 L 91.15625 -21.453125 L 112.59375 -21.453125 L 112.59375 0 L 86.859375 0 C 83.828125 0 81.238281 -1.070312 79.09375 -3.21875 L 39.40625 -42.890625 L 26.8125 -42.890625 L 26.8125 0 L 5.359375 0 L 5.359375 -107.234375 L 91.15625 -107.234375 C 95.082031 -107.234375 98.675781 -106.269531 101.9375 -104.34375 C 105.195312 -102.425781 107.785156 -99.835938 109.703125 -96.578125 C 111.628906 -93.316406 112.59375 -89.722656 112.59375 -85.796875 Z M 91.15625 -85.796875 L 26.8125 -85.796875 L 26.8125 -64.34375 L 91.15625 -64.34375 Z M 91.15625 -85.796875 "/></g></g></g><g fill="#00ffff" fill-opacity="1"><g transform="translate(1148.613794, 234.765913)"><g><path d="M 112.59375 -107.234375 L 112.59375 -85.796875 L 69.703125 -85.796875 L 69.703125 0 L 48.25 0 L 48.25 -85.796875 L 5.359375 -85.796875 L 5.359375 -107.234375 Z M 112.59375 -107.234375 "/></g></g></g><g fill="#ff00ff" fill-opacity="1"><g transform="translate(1269.27521, 230.996755)"><g/></g></g><g fill="#00ffff" fill-opacity="1"><g transform="translate(1285.601196, 234.765913)"><g/></g></g><g fill="#ff00ff" fill-opacity="1"><g transform="translate(173.421194, 403.168803)"><g><path d="M 112.59375 -107.234375 L 112.59375 -85.796875 L 26.8125 -85.796875 L 26.8125 -64.34375 L 91.15625 -64.34375 C 95.082031 -64.34375 98.675781 -63.378906 101.9375 -61.453125 C 105.195312 -59.535156 107.785156 -56.945312 109.703125 -53.6875 C 111.628906 -50.425781 112.59375 -46.828125 112.59375 -42.890625 L 112.59375 -21.453125 C 112.59375 -17.515625 111.628906 -13.914062 109.703125 -10.65625 C 107.785156 -7.394531 105.195312 -4.800781 101.9375 -2.875 C 98.675781 -0.957031 95.082031 0 91.15625 0 L 5.359375 0 L 5.359375 -21.453125 L 91.15625 -21.453125 L 91.15625 -42.890625 L 26.8125 -42.890625 C 22.875 -42.890625 19.273438 -43.847656 16.015625 -45.765625 C 12.753906 -47.691406 10.160156 -50.285156 8.234375 -53.546875 C 6.316406 -56.804688 5.359375 -60.40625 5.359375 -64.34375 L 5.359375 -85.796875 C 5.359375 -89.722656 6.316406 -93.316406 8.234375 -96.578125 C 10.160156 -99.835938 12.753906 -102.425781 16.015625 -104.34375 C 19.273438 -106.269531 22.875 -107.234375 26.8125 -107.234375 Z M 112.59375 -107.234375 "/></g></g></g><g fill="#ff00ff" fill-opacity="1"><g transform="translate(310.401635, 403.168803)"><g><path d="M 91.15625 0 L 26.8125 0 C 22.875 0 19.273438 -0.957031 16.015625 -2.875 C 12.753906 -4.800781 10.160156 -7.394531 8.234375 -10.65625 C 6.316406 -13.914062 5.359375 -17.515625 5.359375 -21.453125 L 5.359375 -85.796875 C 5.359375 -89.722656 6.316406 -93.316406 8.234375 -96.578125 C 10.160156 -99.835938 12.753906 -102.425781 16.015625 -104.34375 C 19.273438 -106.269531 22.875 -107.234375 26.8125 -107.234375 L 91.15625 -107.234375 C 95.082031 -107.234375 98.675781 -106.269531 101.9375 -104.34375 C 105.195312 -102.425781 107.785156 -99.835938 109.703125 -96.578125 C 111.628906 -93.316406 112.59375 -89.722656 112.59375 -85.796875 L 112.59375 -21.453125 C 112.59375 -17.609375 111.628906 -14.050781 109.703125 -10.78125 C 107.785156 -7.519531 105.21875 -4.90625 102 -2.9375 C 98.789062 -0.976562 95.175781 0 91.15625 0 Z M 26.8125 -85.796875 L 26.8125 -21.453125 L 91.15625 -21.453125 L 91.15625 -85.796875 Z M 26.8125 -85.796875 "/></g></g></g><g fill="#ff00ff" fill-opacity="1"><g transform="translate(447.382076, 403.168803)"><g><path d="M 112.59375 0 L 26.8125 0 C 22.875 0 19.273438 -0.957031 16.015625 -2.875 C 12.753906 -4.800781 10.160156 -7.394531 8.234375 -10.65625 C 6.316406 -13.914062 5.359375 -17.515625 5.359375 -21.453125 L 5.359375 -107.234375 L 26.8125 -107.234375 L 26.8125 -21.453125 L 112.59375 -21.453125 Z M 112.59375 0 "/></g></g></g><g fill="#ff00ff" fill-opacity="1"><g transform="translate(584.362525, 403.168803)"><g><path d="M 91.15625 0 L 26.8125 0 C 22.875 0 19.273438 -0.957031 16.015625 -2.875 C 12.753906 -4.800781 10.160156 -7.394531 8.234375 -10.65625 C 6.316406 -13.914062 5.359375 -17.515625 5.359375 -21.453125 L 5.359375 -107.234375 L 26.8125 -107.234375 L 26.8125 -21.453125 L 91.15625 -21.453125 L 91.15625 -107.234375 L 112.59375 -107.234375 L 112.59375 -21.453125 C 112.59375 -17.515625 111.628906 -13.914062 109.703125 -10.65625 C 107.785156 -7.394531 105.195312 -4.800781 101.9375 -2.875 C 98.675781 -0.957031 95.082031 0 91.15625 0 Z M 91.15625 0 "/></g></g></g><g fill="#ff00ff" fill-opacity="1"><g transform="translate(721.342951, 403.168803)"><g><path d="M 112.59375 -107.234375 L 112.59375 -85.796875 L 69.703125 -85.796875 L 69.703125 0 L 48.25 0 L 48.25 -85.796875 L 5.359375 -85.796875 L 5.359375 -107.234375 Z M 112.59375 -107.234375 "/></g></g></g><g fill="#ff00ff" fill-opacity="1"><g transform="translate(858.323377, 403.168803)"><g><path d="M 112.59375 0 L 5.359375 0 L 5.359375 -21.453125 L 48.25 -21.453125 L 48.25 -85.796875 L 5.359375 -85.796875 L 5.359375 -107.234375 L 112.59375 -107.234375 L 112.59375 -85.796875 L 69.703125 -85.796875 L 69.703125 -21.453125 L 112.59375 -21.453125 Z M 112.59375 0 "/></g></g></g><g fill="#ff00ff" fill-opacity="1"><g transform="translate(995.303855, 403.168803)"><g><path d="M 91.15625 0 L 26.8125 0 C 22.875 0 19.273438 -0.957031 16.015625 -2.875 C 12.753906 -4.800781 10.160156 -7.394531 8.234375 -10.65625 C 6.316406 -13.914062 5.359375 -17.515625 5.359375 -21.453125 L 5.359375 -85.796875 C 5.359375 -89.722656 6.316406 -93.316406 8.234375 -96.578125 C 10.160156 -99.835938 12.753906 -102.425781 16.015625 -104.34375 C 19.273438 -106.269531 22.875 -107.234375 26.8125 -107.234375 L 91.15625 -107.234375 C 95.082031 -107.234375 98.675781 -106.269531 101.9375 -104.34375 C 105.195312 -102.425781 107.785156 -99.835938 109.703125 -96.578125 C 111.628906 -93.316406 112.59375 -89.722656 112.59375 -85.796875 L 112.59375 -21.453125 C 112.59375 -17.609375 111.628906 -14.050781 109.703125 -10.78125 C 107.785156 -7.519531 105.21875 -4.90625 102 -2.9375 C 98.789062 -0.976562 95.175781 0 91.15625 0 Z M 26.8125 -85.796875 L 26.8125 -21.453125 L 91.15625 -21.453125 L 91.15625 -85.796875 Z M 26.8125 -85.796875 "/></g></g></g><g fill="#ff00ff" fill-opacity="1"><g transform="translate(1132.284236, 403.168803)"><g><path d="M 26.8125 0 L 5.359375 0 L 5.359375 -96.515625 C 5.359375 -99.460938 6.40625 -101.984375 8.5 -104.078125 C 10.601562 -106.179688 13.128906 -107.234375 16.078125 -107.234375 C 19.035156 -107.234375 21.582031 -106.160156 23.71875 -104.015625 L 91.15625 -36.59375 L 91.15625 -107.234375 L 112.59375 -107.234375 L 112.59375 -10.71875 C 112.59375 -7.769531 111.539062 -5.242188 109.4375 -3.140625 C 107.34375 -1.046875 104.820312 0 101.875 0 C 98.925781 0 96.378906 -1.070312 94.234375 -3.21875 L 26.8125 -70.640625 Z M 26.8125 0 "/></g></g></g><g fill="#00ffff" fill-opacity="1"><g transform="translate(189.747181, 406.937961)"><g><path d="M 112.59375 -107.234375 L 112.59375 -85.796875 L 26.8125 -85.796875 L 26.8125 -64.34375 L 91.15625 -64.34375 C 95.082031 -64.34375 98.675781 -63.378906 101.9375 -61.453125 C 105.195312 -59.535156 107.785156 -56.945312 109.703125 -53.6875 C 111.628906 -50.425781 112.59375 -46.828125 112.59375 -42.890625 L 112.59375 -21.453125 C 112.59375 -17.515625 111.628906 -13.914062 109.703125 -10.65625 C 107.785156 -7.394531 105.195312 -4.800781 101.9375 -2.875 C 98.675781 -0.957031 95.082031 0 91.15625 0 L 5.359375 0 L 5.359375 -21.453125 L 91.15625 -21.453125 L 91.15625 -42.890625 L 26.8125 -42.890625 C 22.875 -42.890625 19.273438 -43.847656 16.015625 -45.765625 C 12.753906 -47.691406 10.160156 -50.285156 8.234375 -53.546875 C 6.316406 -56.804688 5.359375 -60.40625 5.359375 -64.34375 L 5.359375 -85.796875 C 5.359375 -89.722656 6.316406 -93.316406 8.234375 -96.578125 C 10.160156 -99.835938 12.753906 -102.425781 16.015625 -104.34375 C 19.273438 -106.269531 22.875 -107.234375 26.8125 -107.234375 Z M 112.59375 -107.234375 "/></g></g></g><g fill="#00ffff" fill-opacity="1"><g transform="translate(326.727622, 406.937961)"><g><path d="M 91.15625 0 L 26.8125 0 C 22.875 0 19.273438 -0.957031 16.015625 -2.875 C 12.753906 -4.800781 10.160156 -7.394531 8.234375 -10.65625 C 6.316406 -13.914062 5.359375 -17.515625 5.359375 -21.453125 L 5.359375 -85.796875 C 5.359375 -89.722656 6.316406 -93.316406 8.234375 -96.578125 C 10.160156 -99.835938 12.753906 -102.425781 16.015625 -104.34375 C 19.273438 -106.269531 22.875 -107.234375 26.8125 -107.234375 L 91.15625 -107.234375 C 95.082031 -107.234375 98.675781 -106.269531 101.9375 -104.34375 C 105.195312 -102.425781 107.785156 -99.835938 109.703125 -96.578125 C 111.628906 -93.316406 112.59375 -89.722656 112.59375 -85.796875 L 112.59375 -21.453125 C 112.59375 -17.609375 111.628906 -14.050781 109.703125 -10.78125 C 107.785156 -7.519531 105.21875 -4.90625 102 -2.9375 C 98.789062 -0.976562 95.175781 0 91.15625 0 Z M 26.8125 -85.796875 L 26.8125 -21.453125 L 91.15625 -21.453125 L 91.15625 -85.796875 Z M 26.8125 -85.796875 "/></g></g></g><g fill="#00ffff" fill-opacity="1"><g transform="translate(463.708063, 406.937961)"><g><path d="M 112.59375 0 L 26.8125 0 C 22.875 0 19.273438 -0.957031 16.015625 -2.875 C 12.753906 -4.800781 10.160156 -7.394531 8.234375 -10.65625 C 6.316406 -13.914062 5.359375 -17.515625 5.359375 -21.453125 L 5.359375 -107.234375 L 26.8125 -107.234375 L 26.8125 -21.453125 L 112.59375 -21.453125 Z M 112.59375 0 "/></g></g></g><g fill="#00ffff" fill-opacity="1"><g transform="translate(600.688511, 406.937961)"><g><path d="M 91.15625 0 L 26.8125 0 C 22.875 0 19.273438 -0.957031 16.015625 -2.875 C 12.753906 -4.800781 10.160156 -7.394531 8.234375 -10.65625 C 6.316406 -13.914062 5.359375 -17.515625 5.359375 -21.453125 L 5.359375 -107.234375 L 26.8125 -107.234375 L 26.8125 -21.453125 L 91.15625 -21.453125 L 91.15625 -107.234375 L 112.59375 -107.234375 L 112.59375 -21.453125 C 112.59375 -17.515625 111.628906 -13.914062 109.703125 -10.65625 C 107.785156 -7.394531 105.195312 -4.800781 101.9375 -2.875 C 98.675781 -0.957031 95.082031 0 91.15625 0 Z M 91.15625 0 "/></g></g></g><g fill="#00ffff" fill-opacity="1"><g transform="translate(737.668937, 406.937961)"><g><path d="M 112.59375 -107.234375 L 112.59375 -85.796875 L 69.703125 -85.796875 L 69.703125 0 L 48.25 0 L 48.25 -85.796875 L 5.359375 -85.796875 L 5.359375 -107.234375 Z M 112.59375 -107.234375 "/></g></g></g><g fill="#00ffff" fill-opacity="1"><g transform="translate(874.649363, 406.937961)"><g><path d="M 112.59375 0 L 5.359375 0 L 5.359375 -21.453125 L 48.25 -21.453125 L 48.25 -85.796875 L 5.359375 -85.796875 L 5.359375 -107.234375 L 112.59375 -107.234375 L 112.59375 -85.796875 L 69.703125 -85.796875 L 69.703125 -21.453125 L 112.59375 -21.453125 Z M 112.59375 0 "/></g></g></g><g fill="#00ffff" fill-opacity="1"><g transform="translate(1011.629842, 406.937961)"><g><path d="M 91.15625 0 L 26.8125 0 C 22.875 0 19.273438 -0.957031 16.015625 -2.875 C 12.753906 -4.800781 10.160156 -7.394531 8.234375 -10.65625 C 6.316406 -13.914062 5.359375 -17.515625 5.359375 -21.453125 L 5.359375 -85.796875 C 5.359375 -89.722656 6.316406 -93.316406 8.234375 -96.578125 C 10.160156 -99.835938 12.753906 -102.425781 16.015625 -104.34375 C 19.273438 -106.269531 22.875 -107.234375 26.8125 -107.234375 L 91.15625 -107.234375 C 95.082031 -107.234375 98.675781 -106.269531 101.9375 -104.34375 C 105.195312 -102.425781 107.785156 -99.835938 109.703125 -96.578125 C 111.628906 -93.316406 112.59375 -89.722656 112.59375 -85.796875 L 112.59375 -21.453125 C 112.59375 -17.609375 111.628906 -14.050781 109.703125 -10.78125 C 107.785156 -7.519531 105.21875 -4.90625 102 -2.9375 C 98.789062 -0.976562 95.175781 0 91.15625 0 Z M 26.8125 -85.796875 L 26.8125 -21.453125 L 91.15625 -21.453125 L 91.15625 -85.796875 Z M 26.8125 -85.796875 "/></g></g></g><g fill="#00ffff" fill-opacity="1"><g transform="translate(1148.610223, 406.937961)"><g><path d="M 26.8125 0 L 5.359375 0 L 5.359375 -96.515625 C 5.359375 -99.460938 6.40625 -101.984375 8.5 -104.078125 C 10.601562 -106.179688 13.128906 -107.234375 16.078125 -107.234375 C 19.035156 -107.234375 21.582031 -106.160156 23.71875 -104.015625 L 91.15625 -36.59375 L 91.15625 -107.234375 L 112.59375 -107.234375 L 112.59375 -10.71875 C 112.59375 -7.769531 111.539062 -5.242188 109.4375 -3.140625 C 107.34375 -1.046875 104.820312 0 101.875 0 C 98.925781 0 96.378906 -1.070312 94.234375 -3.21875 L 26.8125 -70.640625 Z M 26.8125 0 "/></g></g></g><g fill="#000000" fill-opacity="1"><g transform="translate(103.580425, 232.881334)"><g><path d="M 91.15625 -21.453125 L 91.15625 -107.234375 L 112.59375 -107.234375 L 112.59375 -21.453125 C 112.59375 -17.515625 111.628906 -13.914062 109.703125 -10.65625 C 107.785156 -7.394531 105.195312 -4.800781 101.9375 -2.875 C 98.675781 -0.957031 95.082031 0 91.15625 0 L 26.8125 0 C 22.875 0 19.273438 -0.957031 16.015625 -2.875 C 12.753906 -4.800781 10.160156 -7.394531 8.234375 -10.65625 C 6.316406 -13.914062 5.359375 -17.515625 5.359375 -21.453125 L 5.359375 -107.234375 L 26.8125 -107.234375 L 26.8125 -21.453125 L 48.25 -21.453125 L 48.25 -107.234375 L 69.703125 -107.234375 L 69.703125 -21.453125 Z M 91.15625 -21.453125 "/></g></g></g><g fill="#000000" fill-opacity="1"><g transform="translate(240.560866, 232.881334)"><g><path d="M 112.59375 -107.234375 L 112.59375 -85.796875 L 26.8125 -85.796875 L 26.8125 -64.34375 L 112.59375 -64.34375 L 112.59375 -42.890625 L 26.8125 -42.890625 L 26.8125 -21.453125 L 112.59375 -21.453125 L 112.59375 0 L 26.8125 0 C 22.875 0 19.273438 -0.957031 16.015625 -2.875 C 12.753906 -4.800781 10.160156 -7.394531 8.234375 -10.65625 C 6.316406 -13.914062 5.359375 -17.515625 5.359375 -21.453125 L 5.359375 -85.796875 C 5.359375 -89.722656 6.316406 -93.316406 8.234375 -96.578125 C 10.160156 -99.835938 12.753906 -102.425781 16.015625 -104.34375 C 19.273438 -106.269531 22.875 -107.234375 26.8125 -107.234375 Z M 112.59375 -107.234375 "/></g></g></g><g fill="#000000" fill-opacity="1"><g transform="translate(377.541307, 232.881334)"><g><path d="M 112.59375 -85.796875 L 112.59375 -64.34375 C 112.59375 -61.394531 111.539062 -58.867188 109.4375 -56.765625 C 107.34375 -54.671875 104.820312 -53.625 101.875 -53.625 C 104.820312 -53.625 107.34375 -52.570312 109.4375 -50.46875 C 111.539062 -48.363281 112.59375 -45.835938 112.59375 -42.890625 L 112.59375 -21.453125 C 112.59375 -17.609375 111.628906 -14.050781 109.703125 -10.78125 C 107.785156 -7.519531 105.21875 -4.90625 102 -2.9375 C 98.789062 -0.976562 95.175781 0 91.15625 0 L 5.359375 0 L 5.359375 -107.234375 L 91.15625 -107.234375 C 95.175781 -107.234375 98.789062 -106.25 102 -104.28125 C 105.21875 -102.320312 107.785156 -99.734375 109.703125 -96.515625 C 111.628906 -93.296875 112.59375 -89.722656 112.59375 -85.796875 Z M 91.15625 -85.796875 L 26.8125 -85.796875 L 26.8125 -64.34375 L 91.15625 -64.34375 Z M 26.8125 -21.453125 L 91.15625 -21.453125 L 91.15625 -42.890625 L 26.8125 -42.890625 Z M 26.8125 -21.453125 "/></g></g></g><g fill="#000000" fill-opacity="1"><g transform="translate(514.521755, 232.881334)"><g/></g></g><g fill="#000000" fill-opacity="1"><g transform="translate(592.529036, 232.881334)"><g><path d="M 112.59375 -107.234375 L 112.59375 -85.796875 L 26.8125 -85.796875 L 26.8125 -64.34375 L 91.15625 -64.34375 C 95.082031 -64.34375 98.675781 -63.378906 101.9375 -61.453125 C 105.195312 -59.535156 107.785156 -56.945312 109.703125 -53.6875 C 111.628906 -50.425781 112.59375 -46.828125 112.59375 -42.890625 L 112.59375 -21.453125 C 112.59375 -17.515625 111.628906 -13.914062 109.703125 -10.65625 C 107.785156 -7.394531 105.195312 -4.800781 101.9375 -2.875 C 98.675781 -0.957031 95.082031 0 91.15625 0 L 5.359375 0 L 5.359375 -21.453125 L 91.15625 -21.453125 L 91.15625 -42.890625 L 26.8125 -42.890625 C 22.875 -42.890625 19.273438 -43.847656 16.015625 -45.765625 C 12.753906 -47.691406 10.160156 -50.285156 8.234375 -53.546875 C 6.316406 -56.804688 5.359375 -60.40625 5.359375 -64.34375 L 5.359375 -85.796875 C 5.359375 -89.722656 6.316406 -93.316406 8.234375 -96.578125 C 10.160156 -99.835938 12.753906 -102.425781 16.015625 -104.34375 C 19.273438 -106.269531 22.875 -107.234375 26.8125 -107.234375 Z M 112.59375 -107.234375 "/></g></g></g><g fill="#000000" fill-opacity="1"><g transform="translate(729.509462, 232.881334)"><g><path d="M 26.8125 -107.234375 L 91.15625 -107.234375 C 95.082031 -107.234375 98.675781 -106.269531 101.9375 -104.34375 C 105.195312 -102.425781 107.785156 -99.835938 109.703125 -96.578125 C 111.628906 -93.316406 112.59375 -89.722656 112.59375 -85.796875 L 112.59375 0 L 91.15625 0 L 91.15625 -85.796875 L 69.703125 -85.796875 L 69.703125 0 L 48.25 0 L 48.25 -85.796875 L 26.8125 -85.796875 L 26.8125 0 L 5.359375 0 L 5.359375 -85.796875 C 5.359375 -89.722656 6.316406 -93.316406 8.234375 -96.578125 C 10.160156 -99.835938 12.753906 -102.425781 16.015625 -104.34375 C 19.273438 -106.269531 22.875 -107.234375 26.8125 -107.234375 Z M 26.8125 -107.234375 "/></g></g></g><g fill="#000000" fill-opacity="1"><g transform="translate(866.489941, 232.881334)"><g><path d="M 26.8125 -107.234375 L 91.15625 -107.234375 C 95.082031 -107.234375 98.675781 -106.269531 101.9375 -104.34375 C 105.195312 -102.425781 107.785156 -99.835938 109.703125 -96.578125 C 111.628906 -93.316406 112.59375 -89.722656 112.59375 -85.796875 L 112.59375 0 L 91.15625 0 L 91.15625 -42.890625 L 26.8125 -42.890625 L 26.8125 0 L 5.359375 0 L 5.359375 -85.796875 C 5.359375 -89.722656 6.316406 -93.316406 8.234375 -96.578125 C 10.160156 -99.835938 12.753906 -102.425781 16.015625 -104.34375 C 19.273438 -106.269531 22.875 -107.234375 26.8125 -107.234375 Z M 26.8125 -85.796875 L 26.8125 -64.34375 L 91.15625 -64.34375 L 91.15625 -85.796875 Z M 26.8125 -85.796875 "/></g></g></g><g fill="#000000" fill-opacity="1"><g transform="translate(1003.470322, 232.881334)"><g><path d="M 112.59375 -85.796875 L 112.59375 -64.34375 C 112.59375 -60.40625 111.628906 -56.804688 109.703125 -53.546875 C 107.785156 -50.285156 105.195312 -47.691406 101.9375 -45.765625 C 98.675781 -43.847656 95.082031 -42.890625 91.15625 -42.890625 L 69.703125 -42.890625 L 91.15625 -21.453125 L 112.59375 -21.453125 L 112.59375 0 L 86.859375 0 C 83.828125 0 81.238281 -1.070312 79.09375 -3.21875 L 39.40625 -42.890625 L 26.8125 -42.890625 L 26.8125 0 L 5.359375 0 L 5.359375 -107.234375 L 91.15625 -107.234375 C 95.082031 -107.234375 98.675781 -106.269531 101.9375 -104.34375 C 105.195312 -102.425781 107.785156 -99.835938 109.703125 -96.578125 C 111.628906 -93.316406 112.59375 -89.722656 112.59375 -85.796875 Z M 91.15625 -85.796875 L 26.8125 -85.796875 L 26.8125 -64.34375 L 91.15625 -64.34375 Z M 91.15625 -85.796875 "/></g></g></g><g fill="#000000" fill-opacity="1"><g transform="translate(1140.4508, 232.881334)"><g><path d="M 112.59375 -107.234375 L 112.59375 -85.796875 L 69.703125 -85.796875 L 69.703125 0 L 48.25 0 L 48.25 -85.796875 L 5.359375 -85.796875 L 5.359375 -107.234375 Z M 112.59375 -107.234375 "/></g></g></g><g fill="#000000" fill-opacity="1"><g transform="translate(1277.438203, 232.881334)"><g/></g></g><g fill="#000000" fill-opacity="1"><g transform="translate(181.584188, 405.053382)"><g><path d="M 112.59375 -107.234375 L 112.59375 -85.796875 L 26.8125 -85.796875 L 26.8125 -64.34375 L 91.15625 -64.34375 C 95.082031 -64.34375 98.675781 -63.378906 101.9375 -61.453125 C 105.195312 -59.535156 107.785156 -56.945312 109.703125 -53.6875 C 111.628906 -50.425781 112.59375 -46.828125 112.59375 -42.890625 L 112.59375 -21.453125 C 112.59375 -17.515625 111.628906 -13.914062 109.703125 -10.65625 C 107.785156 -7.394531 105.195312 -4.800781 101.9375 -2.875 C 98.675781 -0.957031 95.082031 0 91.15625 0 L 5.359375 0 L 5.359375 -21.453125 L 91.15625 -21.453125 L 91.15625 -42.890625 L 26.8125 -42.890625 C 22.875 -42.890625 19.273438 -43.847656 16.015625 -45.765625 C 12.753906 -47.691406 10.160156 -50.285156 8.234375 -53.546875 C 6.316406 -56.804688 5.359375 -60.40625 5.359375 -64.34375 L 5.359375 -85.796875 C 5.359375 -89.722656 6.316406 -93.316406 8.234375 -96.578125 C 10.160156 -99.835938 12.753906 -102.425781 16.015625 -104.34375 C 19.273438 -106.269531 22.875 -107.234375 26.8125 -107.234375 Z M 112.59375 -107.234375 "/></g></g></g><g fill="#000000" fill-opacity="1"><g transform="translate(318.564628, 405.053382)"><g><path d="M 91.15625 0 L 26.8125 0 C 22.875 0 19.273438 -0.957031 16.015625 -2.875 C 12.753906 -4.800781 10.160156 -7.394531 8.234375 -10.65625 C 6.316406 -13.914062 5.359375 -17.515625 5.359375 -21.453125 L 5.359375 -85.796875 C 5.359375 -89.722656 6.316406 -93.316406 8.234375 -96.578125 C 10.160156 -99.835938 12.753906 -102.425781 16.015625 -104.34375 C 19.273438 -106.269531 22.875 -107.234375 26.8125 -107.234375 L 91.15625 -107.234375 C 95.082031 -107.234375 98.675781 -106.269531 101.9375 -104.34375 C 105.195312 -102.425781 107.785156 -99.835938 109.703125 -96.578125 C 111.628906 -93.316406 112.59375 -89.722656 112.59375 -85.796875 L 112.59375 -21.453125 C 112.59375 -17.609375 111.628906 -14.050781 109.703125 -10.78125 C 107.785156 -7.519531 105.21875 -4.90625 102 -2.9375 C 98.789062 -0.976562 95.175781 0 91.15625 0 Z M 26.8125 -85.796875 L 26.8125 -21.453125 L 91.15625 -21.453125 L 91.15625 -85.796875 Z M 26.8125 -85.796875 "/></g></g></g><g fill="#000000" fill-opacity="1"><g transform="translate(455.545069, 405.053382)"><g><path d="M 112.59375 0 L 26.8125 0 C 22.875 0 19.273438 -0.957031 16.015625 -2.875 C 12.753906 -4.800781 10.160156 -7.394531 8.234375 -10.65625 C 6.316406 -13.914062 5.359375 -17.515625 5.359375 -21.453125 L 5.359375 -107.234375 L 26.8125 -107.234375 L 26.8125 -21.453125 L 112.59375 -21.453125 Z M 112.59375 0 "/></g></g></g><g fill="#000000" fill-opacity="1"><g transform="translate(592.525518, 405.053382)"><g><path d="M 91.15625 0 L 26.8125 0 C 22.875 0 19.273438 -0.957031 16.015625 -2.875 C 12.753906 -4.800781 10.160156 -7.394531 8.234375 -10.65625 C 6.316406 -13.914062 5.359375 -17.515625 5.359375 -21.453125 L 5.359375 -107.234375 L 26.8125 -107.234375 L 26.8125 -21.453125 L 91.15625 -21.453125 L 91.15625 -107.234375 L 112.59375 -107.234375 L 112.59375 -21.453125 C 112.59375 -17.515625 111.628906 -13.914062 109.703125 -10.65625 C 107.785156 -7.394531 105.195312 -4.800781 101.9375 -2.875 C 98.675781 -0.957031 95.082031 0 91.15625 0 Z M 91.15625 0 "/></g></g></g><g fill="#000000" fill-opacity="1"><g transform="translate(729.505944, 405.053382)"><g><path d="M 112.59375 -107.234375 L 112.59375 -85.796875 L 69.703125 -85.796875 L 69.703125 0 L 48.25 0 L 48.25 -85.796875 L 5.359375 -85.796875 L 5.359375 -107.234375 Z M 112.59375 -107.234375 "/></g></g></g><g fill="#000000" fill-opacity="1"><g transform="translate(866.48637, 405.053382)"><g><path d="M 112.59375 0 L 5.359375 0 L 5.359375 -21.453125 L 48.25 -21.453125 L 48.25 -85.796875 L 5.359375 -85.796875 L 5.359375 -107.234375 L 112.59375 -107.234375 L 112.59375 -85.796875 L 69.703125 -85.796875 L 69.703125 -21.453125 L 112.59375 -21.453125 Z M 112.59375 0 "/></g></g></g><g fill="#000000" fill-opacity="1"><g transform="translate(1003.466848, 405.053382)"><g><path d="M 91.15625 0 L 26.8125 0 C 22.875 0 19.273438 -0.957031 16.015625 -2.875 C 12.753906 -4.800781 10.160156 -7.394531 8.234375 -10.65625 C 6.316406 -13.914062 5.359375 -17.515625 5.359375 -21.453125 L 5.359375 -85.796875 C 5.359375 -89.722656 6.316406 -93.316406 8.234375 -96.578125 C 10.160156 -99.835938 12.753906 -102.425781 16.015625 -104.34375 C 19.273438 -106.269531 22.875 -107.234375 26.8125 -107.234375 L 91.15625 -107.234375 C 95.082031 -107.234375 98.675781 -106.269531 101.9375 -104.34375 C 105.195312 -102.425781 107.785156 -99.835938 109.703125 -96.578125 C 111.628906 -93.316406 112.59375 -89.722656 112.59375 -85.796875 L 112.59375 -21.453125 C 112.59375 -17.609375 111.628906 -14.050781 109.703125 -10.78125 C 107.785156 -7.519531 105.21875 -4.90625 102 -2.9375 C 98.789062 -0.976562 95.175781 0 91.15625 0 Z M 26.8125 -85.796875 L 26.8125 -21.453125 L 91.15625 -21.453125 L 91.15625 -85.796875 Z M 26.8125 -85.796875 "/></g></g></g><g fill="#000000" fill-opacity="1"><g transform="translate(1140.447229, 405.053382)"><g><path d="M 26.8125 0 L 5.359375 0 L 5.359375 -96.515625 C 5.359375 -99.460938 6.40625 -101.984375 8.5 -104.078125 C 10.601562 -106.179688 13.128906 -107.234375 16.078125 -107.234375 C 19.035156 -107.234375 21.582031 -106.160156 23.71875 -104.015625 L 91.15625 -36.59375 L 91.15625 -107.234375 L 112.59375 -107.234375 L 112.59375 -10.71875 C 112.59375 -7.769531 111.539062 -5.242188 109.4375 -3.140625 C 107.34375 -1.046875 104.820312 0 101.875 0 C 98.925781 0 96.378906 -1.070312 94.234375 -3.21875 L 26.8125 -70.640625 Z M 26.8125 0 "/></g></g></g></svg>