<svg xmlns="http://www.w3.org/2000/svg" xmlns:xlink="http://www.w3.org/1999/xlink" zoomAndPan="magnify" preserveAspectRatio="xMidYMid meet" version="1.0" viewBox="101.07 121.61 1159.87 280.06"><defs><g/><clipPath id="baba160b77"><rect x="0" width="1269" y="0" height="334"/></clipPath></defs><g transform="matrix(1, 0, 0, 1, 89, 95)"><g clip-path="url(#baba160b77)"><g fill="#ff00ff" fill-opacity="1"><g transform="translate(6.7149, 133.829807)"><g><path d="M 91.125 -21.4375 L 91.125 -107.21875 L 112.578125 -107.21875 L 112.578125 -21.4375 C 112.578125 -17.507812 111.613281 -13.914062 109.6875 -10.65625 C 107.769531 -7.394531 105.179688 -4.800781 101.921875 -2.875 C 98.660156 -0.957031 95.0625 0 91.125 0 L 26.796875 0 C 22.867188 0 19.273438 -0.957031 16.015625 -2.875 C 12.753906 -4.800781 10.160156 -7.394531 8.234375 -10.65625 C 6.316406 -13.914062 5.359375 -17.507812 5.359375 -21.4375 L 5.359375 -107.21875 L 26.796875 -107.21875 L 26.796875 -21.4375 L 48.25 -21.4375 L 48.25 -107.21875 L 69.6875 -107.21875 L 69.6875 -21.4375 Z M 91.125 -21.4375 "/></g></g></g><g fill="#ff00ff" fill-opacity="1"><g transform="translate(143.616115, 133.829807)"><g><path d="M 112.578125 -107.21875 L 112.578125 -85.765625 L 26.796875 -85.765625 L 26.796875 -64.328125 L 112.578125 -64.328125 L 112.578125 -42.890625 L 26.796875 -42.890625 L 26.796875 -21.4375 L 112.578125 -21.4375 L 112.578125 0 L 26.796875 0 C 22.867188 0 19.273438 -0.957031 16.015625 -2.875 C 12.753906 -4.800781 10.160156 -7.394531 8.234375 -10.65625 C 6.316406 -13.914062 5.359375 -17.507812 5.359375 -21.4375 L 5.359375 -85.765625 C 5.359375 -89.703125 6.316406 -93.300781 8.234375 -96.5625 C 10.160156 -99.820312 12.753906 -102.410156 16.015625 -104.328125 C 19.273438 -106.253906 22.867188 -107.21875 26.796875 -107.21875 Z M 112.578125 -107.21875 "/></g></g></g><g fill="#ff00ff" fill-opacity="1"><g transform="translate(280.51733, 133.829807)"><g><path d="M 112.578125 -85.765625 L 112.578125 -64.328125 C 112.578125 -61.378906 111.523438 -58.851562 109.421875 -56.75 C 107.328125 -54.65625 104.804688 -53.609375 101.859375 -53.609375 C 104.804688 -53.609375 107.328125 -52.554688 109.421875 -50.453125 C 111.523438 -48.359375 112.578125 -45.835938 112.578125 -42.890625 L 112.578125 -21.4375 C 112.578125 -17.601562 111.613281 -14.050781 109.6875 -10.78125 C 107.769531 -7.519531 105.203125 -4.90625 101.984375 -2.9375 C 98.765625 -0.976562 95.144531 0 91.125 0 L 5.359375 0 L 5.359375 -107.21875 L 91.125 -107.21875 C 95.144531 -107.21875 98.765625 -106.234375 101.984375 -104.265625 C 105.203125 -102.296875 107.769531 -99.703125 109.6875 -96.484375 C 111.613281 -93.273438 112.578125 -89.703125 112.578125 -85.765625 Z M 91.125 -85.765625 L 26.796875 -85.765625 L 26.796875 -64.328125 L 91.125 -64.328125 Z M 26.796875 -21.4375 L 91.125 -21.4375 L 91.125 -42.890625 L 26.796875 -42.890625 Z M 26.796875 -21.4375 "/></g></g></g><g fill="#ff00ff" fill-opacity="1"><g transform="translate(417.418545, 133.829807)"><g/></g></g><g fill="#ff00ff" fill-opacity="1"><g transform="translate(495.386233, 133.829807)"><g><path d="M 112.578125 -107.21875 L 112.578125 -85.765625 L 26.796875 -85.765625 L 26.796875 -64.328125 L 91.125 -64.328125 C 95.0625 -64.328125 98.660156 -63.363281 101.921875 -61.4375 C 105.179688 -59.519531 107.769531 -56.929688 109.6875 -53.671875 C 111.613281 -50.410156 112.578125 -46.816406 112.578125 -42.890625 L 112.578125 -21.4375 C 112.578125 -17.507812 111.613281 -13.914062 109.6875 -10.65625 C 107.769531 -7.394531 105.179688 -4.800781 101.921875 -2.875 C 98.660156 -0.957031 95.0625 0 91.125 0 L 5.359375 0 L 5.359375 -21.4375 L 91.125 -21.4375 L 91.125 -42.890625 L 26.796875 -42.890625 C 22.867188 -42.890625 19.273438 -43.847656 16.015625 -45.765625 C 12.753906 -47.679688 10.160156 -50.269531 8.234375 -53.53125 C 6.316406 -56.800781 5.359375 -60.398438 5.359375 -64.328125 L 5.359375 -85.765625 C 5.359375 -89.703125 6.316406 -93.300781 8.234375 -96.5625 C 10.160156 -99.820312 12.753906 -102.410156 16.015625 -104.328125 C 19.273438 -106.253906 22.867188 -107.21875 26.796875 -107.21875 Z M 112.578125 -107.21875 "/></g></g></g><g fill="#ff00ff" fill-opacity="1"><g transform="translate(632.287448, 133.829807)"><g><path d="M 26.796875 -107.21875 L 91.125 -107.21875 C 95.0625 -107.21875 98.660156 -106.253906 101.921875 -104.328125 C 105.179688 -102.410156 107.769531 -99.820312 109.6875 -96.5625 C 111.613281 -93.300781 112.578125 -89.703125 112.578125 -85.765625 L 112.578125 0 L 91.125 0 L 91.125 -85.765625 L 69.6875 -85.765625 L 69.6875 0 L 48.25 0 L 48.25 -85.765625 L 26.796875 -85.765625 L 26.796875 0 L 5.359375 0 L 5.359375 -85.765625 C 5.359375 -89.703125 6.316406 -93.300781 8.234375 -96.5625 C 10.160156 -99.820312 12.753906 -102.410156 16.015625 -104.328125 C 19.273438 -106.253906 22.867188 -107.21875 26.796875 -107.21875 Z M 26.796875 -107.21875 "/></g></g></g><g fill="#ff00ff" fill-opacity="1"><g transform="translate(769.188663, 133.829807)"><g><path d="M 26.796875 -107.21875 L 91.125 -107.21875 C 95.0625 -107.21875 98.660156 -106.253906 101.921875 -104.328125 C 105.179688 -102.410156 107.769531 -99.820312 109.6875 -96.5625 C 111.613281 -93.300781 112.578125 -89.703125 112.578125 -85.765625 L 112.578125 0 L 91.125 0 L 91.125 -42.890625 L 26.796875 -42.890625 L 26.796875 0 L 5.359375 0 L 5.359375 -85.765625 C 5.359375 -89.703125 6.316406 -93.300781 8.234375 -96.5625 C 10.160156 -99.820312 12.753906 -102.410156 16.015625 -104.328125 C 19.273438 -106.253906 22.867188 -107.21875 26.796875 -107.21875 Z M 26.796875 -85.765625 L 26.796875 -64.328125 L 91.125 -64.328125 L 91.125 -85.765625 Z M 26.796875 -85.765625 "/></g></g></g><g fill="#ff00ff" fill-opacity="1"><g transform="translate(906.089878, 133.829807)"><g><path d="M 112.578125 -85.765625 L 112.578125 -64.328125 C 112.578125 -60.398438 111.613281 -56.800781 109.6875 -53.53125 C 107.769531 -50.269531 105.179688 -47.679688 101.921875 -45.765625 C 98.660156 -43.847656 95.0625 -42.890625 91.125 -42.890625 L 69.6875 -42.890625 L 91.125 -21.4375 L 112.578125 -21.4375 L 112.578125 0 L 86.84375 0 C 83.800781 0 81.207031 -1.070312 79.0625 -3.21875 L 39.40625 -42.890625 L 26.796875 -42.890625 L 26.796875 0 L 5.359375 0 L 5.359375 -107.21875 L 91.125 -107.21875 C 95.0625 -107.21875 98.660156 -106.253906 101.921875 -104.328125 C 105.179688 -102.410156 107.769531 -99.820312 109.6875 -96.5625 C 111.613281 -93.300781 112.578125 -89.703125 112.578125 -85.765625 Z M 91.125 -85.765625 L 26.796875 -85.765625 L 26.796875 -64.328125 L 91.125 -64.328125 Z M 91.125 -85.765625 "/></g></g></g><g fill="#ff00ff" fill-opacity="1"><g transform="translate(1042.991093, 133.829807)"><g><path d="M 112.578125 -107.21875 L 112.578125 -85.765625 L 69.6875 -85.765625 L 69.6875 0 L 48.25 0 L 48.25 -85.765625 L 5.359375 -85.765625 L 5.359375 -107.21875 Z M 112.578125 -107.21875 "/></g></g></g><g fill="#00ffff" fill-opacity="1"><g transform="translate(23.04093, 137.598965)"><g><path d="M 91.125 -21.4375 L 91.125 -107.21875 L 112.578125 -107.21875 L 112.578125 -21.4375 C 112.578125 -17.507812 111.613281 -13.914062 109.6875 -10.65625 C 107.769531 -7.394531 105.179688 -4.800781 101.921875 -2.875 C 98.660156 -0.957031 95.0625 0 91.125 0 L 26.796875 0 C 22.867188 0 19.273438 -0.957031 16.015625 -2.875 C 12.753906 -4.800781 10.160156 -7.394531 8.234375 -10.65625 C 6.316406 -13.914062 5.359375 -17.507812 5.359375 -21.4375 L 5.359375 -107.21875 L 26.796875 -107.21875 L 26.796875 -21.4375 L 48.25 -21.4375 L 48.25 -107.21875 L 69.6875 -107.21875 L 69.6875 -21.4375 Z M 91.125 -21.4375 "/></g></g></g><g fill="#00ffff" fill-opacity="1"><g transform="translate(159.942145, 137.598965)"><g><path d="M 112.578125 -107.21875 L 112.578125 -85.765625 L 26.796875 -85.765625 L 26.796875 -64.328125 L 112.578125 -64.328125 L 112.578125 -42.890625 L 26.796875 -42.890625 L 26.796875 -21.4375 L 112.578125 -21.4375 L 112.578125 0 L 26.796875 0 C 22.867188 0 19.273438 -0.957031 16.015625 -2.875 C 12.753906 -4.800781 10.160156 -7.394531 8.234375 -10.65625 C 6.316406 -13.914062 5.359375 -17.507812 5.359375 -21.4375 L 5.359375 -85.765625 C 5.359375 -89.703125 6.316406 -93.300781 8.234375 -96.5625 C 10.160156 -99.820312 12.753906 -102.410156 16.015625 -104.328125 C 19.273438 -106.253906 22.867188 -107.21875 26.796875 -107.21875 Z M 112.578125 -107.21875 "/></g></g></g><g fill="#00ffff" fill-opacity="1"><g transform="translate(296.843361, 137.598965)"><g><path d="M 112.578125 -85.765625 L 112.578125 -64.328125 C 112.578125 -61.378906 111.523438 -58.851562 109.421875 -56.75 C 107.328125 -54.65625 104.804688 -53.609375 101.859375 -53.609375 C 104.804688 -53.609375 107.328125 -52.554688 109.421875 -50.453125 C 111.523438 -48.359375 112.578125 -45.835938 112.578125 -42.890625 L 112.578125 -21.4375 C 112.578125 -17.601562 111.613281 -14.050781 109.6875 -10.78125 C 107.769531 -7.519531 105.203125 -4.90625 101.984375 -2.9375 C 98.765625 -0.976562 95.144531 0 91.125 0 L 5.359375 0 L 5.359375 -107.21875 L 91.125 -107.21875 C 95.144531 -107.21875 98.765625 -106.234375 101.984375 -104.265625 C 105.203125 -102.296875 107.769531 -99.703125 109.6875 -96.484375 C 111.613281 -93.273438 112.578125 -89.703125 112.578125 -85.765625 Z M 91.125 -85.765625 L 26.796875 -85.765625 L 26.796875 -64.328125 L 91.125 -64.328125 Z M 26.796875 -21.4375 L 91.125 -21.4375 L 91.125 -42.890625 L 26.796875 -42.890625 Z M 26.796875 -21.4375 "/></g></g></g><g fill="#00ffff" fill-opacity="1"><g transform="translate(433.744576, 137.598965)"><g/></g></g><g fill="#00ffff" fill-opacity="1"><g transform="translate(511.712263, 137.598965)"><g><path d="M 112.578125 -107.21875 L 112.578125 -85.765625 L 26.796875 -85.765625 L 26.796875 -64.328125 L 91.125 -64.328125 C 95.0625 -64.328125 98.660156 -63.363281 101.921875 -61.4375 C 105.179688 -59.519531 107.769531 -56.929688 109.6875 -53.671875 C 111.613281 -50.410156 112.578125 -46.816406 112.578125 -42.890625 L 112.578125 -21.4375 C 112.578125 -17.507812 111.613281 -13.914062 109.6875 -10.65625 C 107.769531 -7.394531 105.179688 -4.800781 101.921875 -2.875 C 98.660156 -0.957031 95.0625 0 91.125 0 L 5.359375 0 L 5.359375 -21.4375 L 91.125 -21.4375 L 91.125 -42.890625 L 26.796875 -42.890625 C 22.867188 -42.890625 19.273438 -43.847656 16.015625 -45.765625 C 12.753906 -47.679688 10.160156 -50.269531 8.234375 -53.53125 C 6.316406 -56.800781 5.359375 -60.398438 5.359375 -64.328125 L 5.359375 -85.765625 C 5.359375 -89.703125 6.316406 -93.300781 8.234375 -96.5625 C 10.160156 -99.820312 12.753906 -102.410156 16.015625 -104.328125 C 19.273438 -106.253906 22.867188 -107.21875 26.796875 -107.21875 Z M 112.578125 -107.21875 "/></g></g></g><g fill="#00ffff" fill-opacity="1"><g transform="translate(648.613478, 137.598965)"><g><path d="M 26.796875 -107.21875 L 91.125 -107.21875 C 95.0625 -107.21875 98.660156 -106.253906 101.921875 -104.328125 C 105.179688 -102.410156 107.769531 -99.820312 109.6875 -96.5625 C 111.613281 -93.300781 112.578125 -89.703125 112.578125 -85.765625 L 112.578125 0 L 91.125 0 L 91.125 -85.765625 L 69.6875 -85.765625 L 69.6875 0 L 48.25 0 L 48.25 -85.765625 L 26.796875 -85.765625 L 26.796875 0 L 5.359375 0 L 5.359375 -85.765625 C 5.359375 -89.703125 6.316406 -93.300781 8.234375 -96.5625 C 10.160156 -99.820312 12.753906 -102.410156 16.015625 -104.328125 C 19.273438 -106.253906 22.867188 -107.21875 26.796875 -107.21875 Z M 26.796875 -107.21875 "/></g></g></g><g fill="#00ffff" fill-opacity="1"><g transform="translate(785.514693, 137.598965)"><g><path d="M 26.796875 -107.21875 L 91.125 -107.21875 C 95.0625 -107.21875 98.660156 -106.253906 101.921875 -104.328125 C 105.179688 -102.410156 107.769531 -99.820312 109.6875 -96.5625 C 111.613281 -93.300781 112.578125 -89.703125 112.578125 -85.765625 L 112.578125 0 L 91.125 0 L 91.125 -42.890625 L 26.796875 -42.890625 L 26.796875 0 L 5.359375 0 L 5.359375 -85.765625 C 5.359375 -89.703125 6.316406 -93.300781 8.234375 -96.5625 C 10.160156 -99.820312 12.753906 -102.410156 16.015625 -104.328125 C 19.273438 -106.253906 22.867188 -107.21875 26.796875 -107.21875 Z M 26.796875 -85.765625 L 26.796875 -64.328125 L 91.125 -64.328125 L 91.125 -85.765625 Z M 26.796875 -85.765625 "/></g></g></g><g fill="#00ffff" fill-opacity="1"><g transform="translate(922.415908, 137.598965)"><g><path d="M 112.578125 -85.765625 L 112.578125 -64.328125 C 112.578125 -60.398438 111.613281 -56.800781 109.6875 -53.53125 C 107.769531 -50.269531 105.179688 -47.679688 101.921875 -45.765625 C 98.660156 -43.847656 95.0625 -42.890625 91.125 -42.890625 L 69.6875 -42.890625 L 91.125 -21.4375 L 112.578125 -21.4375 L 112.578125 0 L 86.84375 0 C 83.800781 0 81.207031 -1.070312 79.0625 -3.21875 L 39.40625 -42.890625 L 26.796875 -42.890625 L 26.796875 0 L 5.359375 0 L 5.359375 -107.21875 L 91.125 -107.21875 C 95.0625 -107.21875 98.660156 -106.253906 101.921875 -104.328125 C 105.179688 -102.410156 107.769531 -99.820312 109.6875 -96.5625 C 111.613281 -93.300781 112.578125 -89.703125 112.578125 -85.765625 Z M 91.125 -85.765625 L 26.796875 -85.765625 L 26.796875 -64.328125 L 91.125 -64.328125 Z M 91.125 -85.765625 "/></g></g></g><g fill="#00ffff" fill-opacity="1"><g transform="translate(1059.317124, 137.598965)"><g><path d="M 112.578125 -107.21875 L 112.578125 -85.765625 L 69.6875 -85.765625 L 69.6875 0 L 48.25 0 L 48.25 -85.765625 L 5.359375 -85.765625 L 5.359375 -107.21875 Z M 112.578125 -107.21875 "/></g></g></g><g fill="#ff00ff" fill-opacity="1"><g transform="translate(1179.946325, 133.829807)"><g/></g></g><g fill="#00ffff" fill-opacity="1"><g transform="translate(1196.272356, 137.598965)"><g/></g></g><g fill="#ff00ff" fill-opacity="1"><g transform="translate(84.736593, 302.906162)"><g><path d="M 112.578125 -107.21875 L 112.578125 -85.765625 L 26.796875 -85.765625 L 26.796875 -64.328125 L 91.125 -64.328125 C 95.0625 -64.328125 98.660156 -63.363281 101.921875 -61.4375 C 105.179688 -59.519531 107.769531 -56.929688 109.6875 -53.671875 C 111.613281 -50.410156 112.578125 -46.816406 112.578125 -42.890625 L 112.578125 -21.4375 C 112.578125 -17.507812 111.613281 -13.914062 109.6875 -10.65625 C 107.769531 -7.394531 105.179688 -4.800781 101.921875 -2.875 C 98.660156 -0.957031 95.0625 0 91.125 0 L 5.359375 0 L 5.359375 -21.4375 L 91.125 -21.4375 L 91.125 -42.890625 L 26.796875 -42.890625 C 22.867188 -42.890625 19.273438 -43.847656 16.015625 -45.765625 C 12.753906 -47.679688 10.160156 -50.269531 8.234375 -53.53125 C 6.316406 -56.800781 5.359375 -60.398438 5.359375 -64.328125 L 5.359375 -85.765625 C 5.359375 -89.703125 6.316406 -93.300781 8.234375 -96.5625 C 10.160156 -99.820312 12.753906 -102.410156 16.015625 -104.328125 C 19.273438 -106.253906 22.867188 -107.21875 26.796875 -107.21875 Z M 112.578125 -107.21875 "/></g></g></g><g fill="#ff00ff" fill-opacity="1"><g transform="translate(221.637808, 302.906162)"><g><path d="M 91.125 0 L 26.796875 0 C 22.867188 0 19.273438 -0.957031 16.015625 -2.875 C 12.753906 -4.800781 10.160156 -7.394531 8.234375 -10.65625 C 6.316406 -13.914062 5.359375 -17.507812 5.359375 -21.4375 L 5.359375 -85.765625 C 5.359375 -89.703125 6.316406 -93.300781 8.234375 -96.5625 C 10.160156 -99.820312 12.753906 -102.410156 16.015625 -104.328125 C 19.273438 -106.253906 22.867188 -107.21875 26.796875 -107.21875 L 91.125 -107.21875 C 95.0625 -107.21875 98.660156 -106.253906 101.921875 -104.328125 C 105.179688 -102.410156 107.769531 -99.820312 109.6875 -96.5625 C 111.613281 -93.300781 112.578125 -89.703125 112.578125 -85.765625 L 112.578125 -21.4375 C 112.578125 -17.601562 111.613281 -14.050781 109.6875 -10.78125 C 107.769531 -7.519531 105.203125 -4.90625 101.984375 -2.9375 C 98.765625 -0.976562 95.144531 0 91.125 0 Z M 26.796875 -85.765625 L 26.796875 -21.4375 L 91.125 -21.4375 L 91.125 -85.765625 Z M 26.796875 -85.765625 "/></g></g></g><g fill="#ff00ff" fill-opacity="1"><g transform="translate(358.539023, 302.906162)"><g><path d="M 112.578125 0 L 26.796875 0 C 22.867188 0 19.273438 -0.957031 16.015625 -2.875 C 12.753906 -4.800781 10.160156 -7.394531 8.234375 -10.65625 C 6.316406 -13.914062 5.359375 -17.507812 5.359375 -21.4375 L 5.359375 -107.21875 L 26.796875 -107.21875 L 26.796875 -21.4375 L 112.578125 -21.4375 Z M 112.578125 0 "/></g></g></g><g fill="#ff00ff" fill-opacity="1"><g transform="translate(495.440239, 302.906162)"><g><path d="M 91.125 0 L 26.796875 0 C 22.867188 0 19.273438 -0.957031 16.015625 -2.875 C 12.753906 -4.800781 10.160156 -7.394531 8.234375 -10.65625 C 6.316406 -13.914062 5.359375 -17.507812 5.359375 -21.4375 L 5.359375 -107.21875 L 26.796875 -107.21875 L 26.796875 -21.4375 L 91.125 -21.4375 L 91.125 -107.21875 L 112.578125 -107.21875 L 112.578125 -21.4375 C 112.578125 -17.507812 111.613281 -13.914062 109.6875 -10.65625 C 107.769531 -7.394531 105.179688 -4.800781 101.921875 -2.875 C 98.660156 -0.957031 95.0625 0 91.125 0 Z M 91.125 0 "/></g></g></g><g fill="#ff00ff" fill-opacity="1"><g transform="translate(632.341454, 302.906162)"><g><path d="M 112.578125 -107.21875 L 112.578125 -85.765625 L 69.6875 -85.765625 L 69.6875 0 L 48.25 0 L 48.25 -85.765625 L 5.359375 -85.765625 L 5.359375 -107.21875 Z M 112.578125 -107.21875 "/></g></g></g><g fill="#ff00ff" fill-opacity="1"><g transform="translate(769.242669, 302.906162)"><g><path d="M 112.578125 0 L 5.359375 0 L 5.359375 -21.4375 L 48.25 -21.4375 L 48.25 -85.765625 L 5.359375 -85.765625 L 5.359375 -107.21875 L 112.578125 -107.21875 L 112.578125 -85.765625 L 69.6875 -85.765625 L 69.6875 -21.4375 L 112.578125 -21.4375 Z M 112.578125 0 "/></g></g></g><g fill="#ff00ff" fill-opacity="1"><g transform="translate(906.143884, 302.906162)"><g><path d="M 91.125 0 L 26.796875 0 C 22.867188 0 19.273438 -0.957031 16.015625 -2.875 C 12.753906 -4.800781 10.160156 -7.394531 8.234375 -10.65625 C 6.316406 -13.914062 5.359375 -17.507812 5.359375 -21.4375 L 5.359375 -85.765625 C 5.359375 -89.703125 6.316406 -93.300781 8.234375 -96.5625 C 10.160156 -99.820312 12.753906 -102.410156 16.015625 -104.328125 C 19.273438 -106.253906 22.867188 -107.21875 26.796875 -107.21875 L 91.125 -107.21875 C 95.0625 -107.21875 98.660156 -106.253906 101.921875 -104.328125 C 105.179688 -102.410156 107.769531 -99.820312 109.6875 -96.5625 C 111.613281 -93.300781 112.578125 -89.703125 112.578125 -85.765625 L 112.578125 -21.4375 C 112.578125 -17.601562 111.613281 -14.050781 109.6875 -10.78125 C 107.769531 -7.519531 105.203125 -4.90625 101.984375 -2.9375 C 98.765625 -0.976562 95.144531 0 91.125 0 Z M 26.796875 -85.765625 L 26.796875 -21.4375 L 91.125 -21.4375 L 91.125 -85.765625 Z M 26.796875 -85.765625 "/></g></g></g><g fill="#ff00ff" fill-opacity="1"><g transform="translate(1043.045099, 302.906162)"><g><path d="M 26.796875 0 L 5.359375 0 L 5.359375 -96.484375 C 5.359375 -99.429688 6.40625 -101.957031 8.5 -104.0625 C 10.601562 -106.164062 13.128906 -107.21875 16.078125 -107.21875 C 19.023438 -107.21875 21.570312 -106.144531 23.71875 -104 L 91.125 -36.59375 L 91.125 -107.21875 L 112.578125 -107.21875 L 112.578125 -10.71875 C 112.578125 -7.769531 111.523438 -5.242188 109.421875 -3.140625 C 107.328125 -1.046875 104.804688 0 101.859375 0 C 98.898438 0 96.351562 -1.070312 94.21875 -3.21875 L 26.796875 -70.625 Z M 26.796875 0 "/></g></g></g><g fill="#00ffff" fill-opacity="1"><g transform="translate(101.062623, 306.675321)"><g><path d="M 112.578125 -107.21875 L 112.578125 -85.765625 L 26.796875 -85.765625 L 26.796875 -64.328125 L 91.125 -64.328125 C 95.0625 -64.328125 98.660156 -63.363281 101.921875 -61.4375 C 105.179688 -59.519531 107.769531 -56.929688 109.6875 -53.671875 C 111.613281 -50.410156 112.578125 -46.816406 112.578125 -42.890625 L 112.578125 -21.4375 C 112.578125 -17.507812 111.613281 -13.914062 109.6875 -10.65625 C 107.769531 -7.394531 105.179688 -4.800781 101.921875 -2.875 C 98.660156 -0.957031 95.0625 0 91.125 0 L 5.359375 0 L 5.359375 -21.4375 L 91.125 -21.4375 L 91.125 -42.890625 L 26.796875 -42.890625 C 22.867188 -42.890625 19.273438 -43.847656 16.015625 -45.765625 C 12.753906 -47.679688 10.160156 -50.269531 8.234375 -53.53125 C 6.316406 -56.800781 5.359375 -60.398438 5.359375 -64.328125 L 5.359375 -85.765625 C 5.359375 -89.703125 6.316406 -93.300781 8.234375 -96.5625 C 10.160156 -99.820312 12.753906 -102.410156 16.015625 -104.328125 C 19.273438 -106.253906 22.867188 -107.21875 26.796875 -107.21875 Z M 112.578125 -107.21875 "/></g></g></g><g fill="#00ffff" fill-opacity="1"><g transform="translate(237.963839, 306.675321)"><g><path d="M 91.125 0 L 26.796875 0 C 22.867188 0 19.273438 -0.957031 16.015625 -2.875 C 12.753906 -4.800781 10.160156 -7.394531 8.234375 -10.65625 C 6.316406 -13.914062 5.359375 -17.507812 5.359375 -21.4375 L 5.359375 -85.765625 C 5.359375 -89.703125 6.316406 -93.300781 8.234375 -96.5625 C 10.160156 -99.820312 12.753906 -102.410156 16.015625 -104.328125 C 19.273438 -106.253906 22.867188 -107.21875 26.796875 -107.21875 L 91.125 -107.21875 C 95.0625 -107.21875 98.660156 -106.253906 101.921875 -104.328125 C 105.179688 -102.410156 107.769531 -99.820312 109.6875 -96.5625 C 111.613281 -93.300781 112.578125 -89.703125 112.578125 -85.765625 L 112.578125 -21.4375 C 112.578125 -17.601562 111.613281 -14.050781 109.6875 -10.78125 C 107.769531 -7.519531 105.203125 -4.90625 101.984375 -2.9375 C 98.765625 -0.976562 95.144531 0 91.125 0 Z M 26.796875 -85.765625 L 26.796875 -21.4375 L 91.125 -21.4375 L 91.125 -85.765625 Z M 26.796875 -85.765625 "/></g></g></g><g fill="#00ffff" fill-opacity="1"><g transform="translate(374.865054, 306.675321)"><g><path d="M 112.578125 0 L 26.796875 0 C 22.867188 0 19.273438 -0.957031 16.015625 -2.875 C 12.753906 -4.800781 10.160156 -7.394531 8.234375 -10.65625 C 6.316406 -13.914062 5.359375 -17.507812 5.359375 -21.4375 L 5.359375 -107.21875 L 26.796875 -107.21875 L 26.796875 -21.4375 L 112.578125 -21.4375 Z M 112.578125 0 "/></g></g></g><g fill="#00ffff" fill-opacity="1"><g transform="translate(511.766269, 306.675321)"><g><path d="M 91.125 0 L 26.796875 0 C 22.867188 0 19.273438 -0.957031 16.015625 -2.875 C 12.753906 -4.800781 10.160156 -7.394531 8.234375 -10.65625 C 6.316406 -13.914062 5.359375 -17.507812 5.359375 -21.4375 L 5.359375 -107.21875 L 26.796875 -107.21875 L 26.796875 -21.4375 L 91.125 -21.4375 L 91.125 -107.21875 L 112.578125 -107.21875 L 112.578125 -21.4375 C 112.578125 -17.507812 111.613281 -13.914062 109.6875 -10.65625 C 107.769531 -7.394531 105.179688 -4.800781 101.921875 -2.875 C 98.660156 -0.957031 95.0625 0 91.125 0 Z M 91.125 0 "/></g></g></g><g fill="#00ffff" fill-opacity="1"><g transform="translate(648.667484, 306.675321)"><g><path d="M 112.578125 -107.21875 L 112.578125 -85.765625 L 69.6875 -85.765625 L 69.6875 0 L 48.25 0 L 48.25 -85.765625 L 5.359375 -85.765625 L 5.359375 -107.21875 Z M 112.578125 -107.21875 "/></g></g></g><g fill="#00ffff" fill-opacity="1"><g transform="translate(785.568699, 306.675321)"><g><path d="M 112.578125 0 L 5.359375 0 L 5.359375 -21.4375 L 48.25 -21.4375 L 48.25 -85.765625 L 5.359375 -85.765625 L 5.359375 -107.21875 L 112.578125 -107.21875 L 112.578125 -85.765625 L 69.6875 -85.765625 L 69.6875 -21.4375 L 112.578125 -21.4375 Z M 112.578125 0 "/></g></g></g><g fill="#00ffff" fill-opacity="1"><g transform="translate(922.469914, 306.675321)"><g><path d="M 91.125 0 L 26.796875 0 C 22.867188 0 19.273438 -0.957031 16.015625 -2.875 C 12.753906 -4.800781 10.160156 -7.394531 8.234375 -10.65625 C 6.316406 -13.914062 5.359375 -17.507812 5.359375 -21.4375 L 5.359375 -85.765625 C 5.359375 -89.703125 6.316406 -93.300781 8.234375 -96.5625 C 10.160156 -99.820312 12.753906 -102.410156 16.015625 -104.328125 C 19.273438 -106.253906 22.867188 -107.21875 26.796875 -107.21875 L 91.125 -107.21875 C 95.0625 -107.21875 98.660156 -106.253906 101.921875 -104.328125 C 105.179688 -102.410156 107.769531 -99.820312 109.6875 -96.5625 C 111.613281 -93.300781 112.578125 -89.703125 112.578125 -85.765625 L 112.578125 -21.4375 C 112.578125 -17.601562 111.613281 -14.050781 109.6875 -10.78125 C 107.769531 -7.519531 105.203125 -4.90625 101.984375 -2.9375 C 98.765625 -0.976562 95.144531 0 91.125 0 Z M 26.796875 -85.765625 L 26.796875 -21.4375 L 91.125 -21.4375 L 91.125 -85.765625 Z M 26.796875 -85.765625 "/></g></g></g><g fill="#00ffff" fill-opacity="1"><g transform="translate(1059.371129, 306.675321)"><g><path d="M 26.796875 0 L 5.359375 0 L 5.359375 -96.484375 C 5.359375 -99.429688 6.40625 -101.957031 8.5 -104.0625 C 10.601562 -106.164062 13.128906 -107.21875 16.078125 -107.21875 C 19.023438 -107.21875 21.570312 -106.144531 23.71875 -104 L 91.125 -36.59375 L 91.125 -107.21875 L 112.578125 -107.21875 L 112.578125 -10.71875 C 112.578125 -7.769531 111.523438 -5.242188 109.421875 -3.140625 C 107.328125 -1.046875 104.804688 0 101.859375 0 C 98.898438 0 96.351562 -1.070312 94.21875 -3.21875 L 26.796875 -70.625 Z M 26.796875 0 "/></g></g></g><g fill="#ffffff" fill-opacity="1"><g transform="translate(14.87791, 135.714386)"><g><path d="M 91.125 -21.4375 L 91.125 -107.21875 L 112.578125 -107.21875 L 112.578125 -21.4375 C 112.578125 -17.507812 111.613281 -13.914062 109.6875 -10.65625 C 107.769531 -7.394531 105.179688 -4.800781 101.921875 -2.875 C 98.660156 -0.957031 95.0625 0 91.125 0 L 26.796875 0 C 22.867188 0 19.273438 -0.957031 16.015625 -2.875 C 12.753906 -4.800781 10.160156 -7.394531 8.234375 -10.65625 C 6.316406 -13.914062 5.359375 -17.507812 5.359375 -21.4375 L 5.359375 -107.21875 L 26.796875 -107.21875 L 26.796875 -21.4375 L 48.25 -21.4375 L 48.25 -107.21875 L 69.6875 -107.21875 L 69.6875 -21.4375 Z M 91.125 -21.4375 "/></g></g></g><g fill="#ffffff" fill-opacity="1"><g transform="translate(151.779125, 135.714386)"><g><path d="M 112.578125 -107.21875 L 112.578125 -85.765625 L 26.796875 -85.765625 L 26.796875 -64.328125 L 112.578125 -64.328125 L 112.578125 -42.890625 L 26.796875 -42.890625 L 26.796875 -21.4375 L 112.578125 -21.4375 L 112.578125 0 L 26.796875 0 C 22.867188 0 19.273438 -0.957031 16.015625 -2.875 C 12.753906 -4.800781 10.160156 -7.394531 8.234375 -10.65625 C 6.316406 -13.914062 5.359375 -17.507812 5.359375 -21.4375 L 5.359375 -85.765625 C 5.359375 -89.703125 6.316406 -93.300781 8.234375 -96.5625 C 10.160156 -99.820312 12.753906 -102.410156 16.015625 -104.328125 C 19.273438 -106.253906 22.867188 -107.21875 26.796875 -107.21875 Z M 112.578125 -107.21875 "/></g></g></g><g fill="#ffffff" fill-opacity="1"><g transform="translate(288.680341, 135.714386)"><g><path d="M 112.578125 -85.765625 L 112.578125 -64.328125 C 112.578125 -61.378906 111.523438 -58.851562 109.421875 -56.75 C 107.328125 -54.65625 104.804688 -53.609375 101.859375 -53.609375 C 104.804688 -53.609375 107.328125 -52.554688 109.421875 -50.453125 C 111.523438 -48.359375 112.578125 -45.835938 112.578125 -42.890625 L 112.578125 -21.4375 C 112.578125 -17.601562 111.613281 -14.050781 109.6875 -10.78125 C 107.769531 -7.519531 105.203125 -4.90625 101.984375 -2.9375 C 98.765625 -0.976562 95.144531 0 91.125 0 L 5.359375 0 L 5.359375 -107.21875 L 91.125 -107.21875 C 95.144531 -107.21875 98.765625 -106.234375 101.984375 -104.265625 C 105.203125 -102.296875 107.769531 -99.703125 109.6875 -96.484375 C 111.613281 -93.273438 112.578125 -89.703125 112.578125 -85.765625 Z M 91.125 -85.765625 L 26.796875 -85.765625 L 26.796875 -64.328125 L 91.125 -64.328125 Z M 26.796875 -21.4375 L 91.125 -21.4375 L 91.125 -42.890625 L 26.796875 -42.890625 Z M 26.796875 -21.4375 "/></g></g></g><g fill="#ffffff" fill-opacity="1"><g transform="translate(425.581556, 135.714386)"><g/></g></g><g fill="#ffffff" fill-opacity="1"><g transform="translate(503.549243, 135.714386)"><g><path d="M 112.578125 -107.21875 L 112.578125 -85.765625 L 26.796875 -85.765625 L 26.796875 -64.328125 L 91.125 -64.328125 C 95.0625 -64.328125 98.660156 -63.363281 101.921875 -61.4375 C 105.179688 -59.519531 107.769531 -56.929688 109.6875 -53.671875 C 111.613281 -50.410156 112.578125 -46.816406 112.578125 -42.890625 L 112.578125 -21.4375 C 112.578125 -17.507812 111.613281 -13.914062 109.6875 -10.65625 C 107.769531 -7.394531 105.179688 -4.800781 101.921875 -2.875 C 98.660156 -0.957031 95.0625 0 91.125 0 L 5.359375 0 L 5.359375 -21.4375 L 91.125 -21.4375 L 91.125 -42.890625 L 26.796875 -42.890625 C 22.867188 -42.890625 19.273438 -43.847656 16.015625 -45.765625 C 12.753906 -47.679688 10.160156 -50.269531 8.234375 -53.53125 C 6.316406 -56.800781 5.359375 -60.398438 5.359375 -64.328125 L 5.359375 -85.765625 C 5.359375 -89.703125 6.316406 -93.300781 8.234375 -96.5625 C 10.160156 -99.820312 12.753906 -102.410156 16.015625 -104.328125 C 19.273438 -106.253906 22.867188 -107.21875 26.796875 -107.21875 Z M 112.578125 -107.21875 "/></g></g></g><g fill="#ffffff" fill-opacity="1"><g transform="translate(640.450458, 135.714386)"><g><path d="M 26.796875 -107.21875 L 91.125 -107.21875 C 95.0625 -107.21875 98.660156 -106.253906 101.921875 -104.328125 C 105.179688 -102.410156 107.769531 -99.820312 109.6875 -96.5625 C 111.613281 -93.300781 112.578125 -89.703125 112.578125 -85.765625 L 112.578125 0 L 91.125 0 L 91.125 -85.765625 L 69.6875 -85.765625 L 69.6875 0 L 48.25 0 L 48.25 -85.765625 L 26.796875 -85.765625 L 26.796875 0 L 5.359375 0 L 5.359375 -85.765625 C 5.359375 -89.703125 6.316406 -93.300781 8.234375 -96.5625 C 10.160156 -99.820312 12.753906 -102.410156 16.015625 -104.328125 C 19.273438 -106.253906 22.867188 -107.21875 26.796875 -107.21875 Z M 26.796875 -107.21875 "/></g></g></g><g fill="#ffffff" fill-opacity="1"><g transform="translate(777.351673, 135.714386)"><g><path d="M 26.796875 -107.21875 L 91.125 -107.21875 C 95.0625 -107.21875 98.660156 -106.253906 101.921875 -104.328125 C 105.179688 -102.410156 107.769531 -99.820312 109.6875 -96.5625 C 111.613281 -93.300781 112.578125 -89.703125 112.578125 -85.765625 L 112.578125 0 L 91.125 0 L 91.125 -42.890625 L 26.796875 -42.890625 L 26.796875 0 L 5.359375 0 L 5.359375 -85.765625 C 5.359375 -89.703125 6.316406 -93.300781 8.234375 -96.5625 C 10.160156 -99.820312 12.753906 -102.410156 16.015625 -104.328125 C 19.273438 -106.253906 22.867188 -107.21875 26.796875 -107.21875 Z M 26.796875 -85.765625 L 26.796875 -64.328125 L 91.125 -64.328125 L 91.125 -85.765625 Z M 26.796875 -85.765625 "/></g></g></g><g fill="#ffffff" fill-opacity="1"><g transform="translate(914.252889, 135.714386)"><g><path d="M 112.578125 -85.765625 L 112.578125 -64.328125 C 112.578125 -60.398438 111.613281 -56.800781 109.6875 -53.53125 C 107.769531 -50.269531 105.179688 -47.679688 101.921875 -45.765625 C 98.660156 -43.847656 95.0625 -42.890625 91.125 -42.890625 L 69.6875 -42.890625 L 91.125 -21.4375 L 112.578125 -21.4375 L 112.578125 0 L 86.84375 0 C 83.800781 0 81.207031 -1.070312 79.0625 -3.21875 L 39.40625 -42.890625 L 26.796875 -42.890625 L 26.796875 0 L 5.359375 0 L 5.359375 -107.21875 L 91.125 -107.21875 C 95.0625 -107.21875 98.660156 -106.253906 101.921875 -104.328125 C 105.179688 -102.410156 107.769531 -99.820312 109.6875 -96.5625 C 111.613281 -93.300781 112.578125 -89.703125 112.578125 -85.765625 Z M 91.125 -85.765625 L 26.796875 -85.765625 L 26.796875 -64.328125 L 91.125 -64.328125 Z M 91.125 -85.765625 "/></g></g></g><g fill="#ffffff" fill-opacity="1"><g transform="translate(1051.154104, 135.714386)"><g><path d="M 112.578125 -107.21875 L 112.578125 -85.765625 L 69.6875 -85.765625 L 69.6875 0 L 48.25 0 L 48.25 -85.765625 L 5.359375 -85.765625 L 5.359375 -107.21875 Z M 112.578125 -107.21875 "/></g></g></g><g fill="#ffffff" fill-opacity="1"><g transform="translate(1188.109336, 135.714386)"><g/></g></g><g fill="#ffffff" fill-opacity="1"><g transform="translate(92.899603, 304.790742)"><g><path d="M 112.578125 -107.21875 L 112.578125 -85.765625 L 26.796875 -85.765625 L 26.796875 -64.328125 L 91.125 -64.328125 C 95.0625 -64.328125 98.660156 -63.363281 101.921875 -61.4375 C 105.179688 -59.519531 107.769531 -56.929688 109.6875 -53.671875 C 111.613281 -50.410156 112.578125 -46.816406 112.578125 -42.890625 L 112.578125 -21.4375 C 112.578125 -17.507812 111.613281 -13.914062 109.6875 -10.65625 C 107.769531 -7.394531 105.179688 -4.800781 101.921875 -2.875 C 98.660156 -0.957031 95.0625 0 91.125 0 L 5.359375 0 L 5.359375 -21.4375 L 91.125 -21.4375 L 91.125 -42.890625 L 26.796875 -42.890625 C 22.867188 -42.890625 19.273438 -43.847656 16.015625 -45.765625 C 12.753906 -47.679688 10.160156 -50.269531 8.234375 -53.53125 C 6.316406 -56.800781 5.359375 -60.398438 5.359375 -64.328125 L 5.359375 -85.765625 C 5.359375 -89.703125 6.316406 -93.300781 8.234375 -96.5625 C 10.160156 -99.820312 12.753906 -102.410156 16.015625 -104.328125 C 19.273438 -106.253906 22.867188 -107.21875 26.796875 -107.21875 Z M 112.578125 -107.21875 "/></g></g></g><g fill="#ffffff" fill-opacity="1"><g transform="translate(229.800819, 304.790742)"><g><path d="M 91.125 0 L 26.796875 0 C 22.867188 0 19.273438 -0.957031 16.015625 -2.875 C 12.753906 -4.800781 10.160156 -7.394531 8.234375 -10.65625 C 6.316406 -13.914062 5.359375 -17.507812 5.359375 -21.4375 L 5.359375 -85.765625 C 5.359375 -89.703125 6.316406 -93.300781 8.234375 -96.5625 C 10.160156 -99.820312 12.753906 -102.410156 16.015625 -104.328125 C 19.273438 -106.253906 22.867188 -107.21875 26.796875 -107.21875 L 91.125 -107.21875 C 95.0625 -107.21875 98.660156 -106.253906 101.921875 -104.328125 C 105.179688 -102.410156 107.769531 -99.820312 109.6875 -96.5625 C 111.613281 -93.300781 112.578125 -89.703125 112.578125 -85.765625 L 112.578125 -21.4375 C 112.578125 -17.601562 111.613281 -14.050781 109.6875 -10.78125 C 107.769531 -7.519531 105.203125 -4.90625 101.984375 -2.9375 C 98.765625 -0.976562 95.144531 0 91.125 0 Z M 26.796875 -85.765625 L 26.796875 -21.4375 L 91.125 -21.4375 L 91.125 -85.765625 Z M 26.796875 -85.765625 "/></g></g></g><g fill="#ffffff" fill-opacity="1"><g transform="translate(366.702034, 304.790742)"><g><path d="M 112.578125 0 L 26.796875 0 C 22.867188 0 19.273438 -0.957031 16.015625 -2.875 C 12.753906 -4.800781 10.160156 -7.394531 8.234375 -10.65625 C 6.316406 -13.914062 5.359375 -17.507812 5.359375 -21.4375 L 5.359375 -107.21875 L 26.796875 -107.21875 L 26.796875 -21.4375 L 112.578125 -21.4375 Z M 112.578125 0 "/></g></g></g><g fill="#ffffff" fill-opacity="1"><g transform="translate(503.603249, 304.790742)"><g><path d="M 91.125 0 L 26.796875 0 C 22.867188 0 19.273438 -0.957031 16.015625 -2.875 C 12.753906 -4.800781 10.160156 -7.394531 8.234375 -10.65625 C 6.316406 -13.914062 5.359375 -17.507812 5.359375 -21.4375 L 5.359375 -107.21875 L 26.796875 -107.21875 L 26.796875 -21.4375 L 91.125 -21.4375 L 91.125 -107.21875 L 112.578125 -107.21875 L 112.578125 -21.4375 C 112.578125 -17.507812 111.613281 -13.914062 109.6875 -10.65625 C 107.769531 -7.394531 105.179688 -4.800781 101.921875 -2.875 C 98.660156 -0.957031 95.0625 0 91.125 0 Z M 91.125 0 "/></g></g></g><g fill="#ffffff" fill-opacity="1"><g transform="translate(640.504464, 304.790742)"><g><path d="M 112.578125 -107.21875 L 112.578125 -85.765625 L 69.6875 -85.765625 L 69.6875 0 L 48.25 0 L 48.25 -85.765625 L 5.359375 -85.765625 L 5.359375 -107.21875 Z M 112.578125 -107.21875 "/></g></g></g><g fill="#ffffff" fill-opacity="1"><g transform="translate(777.405679, 304.790742)"><g><path d="M 112.578125 0 L 5.359375 0 L 5.359375 -21.4375 L 48.25 -21.4375 L 48.25 -85.765625 L 5.359375 -85.765625 L 5.359375 -107.21875 L 112.578125 -107.21875 L 112.578125 -85.765625 L 69.6875 -85.765625 L 69.6875 -21.4375 L 112.578125 -21.4375 Z M 112.578125 0 "/></g></g></g><g fill="#ffffff" fill-opacity="1"><g transform="translate(914.306894, 304.790742)"><g><path d="M 91.125 0 L 26.796875 0 C 22.867188 0 19.273438 -0.957031 16.015625 -2.875 C 12.753906 -4.800781 10.160156 -7.394531 8.234375 -10.65625 C 6.316406 -13.914062 5.359375 -17.507812 5.359375 -21.4375 L 5.359375 -85.765625 C 5.359375 -89.703125 6.316406 -93.300781 8.234375 -96.5625 C 10.160156 -99.820312 12.753906 -102.410156 16.015625 -104.328125 C 19.273438 -106.253906 22.867188 -107.21875 26.796875 -107.21875 L 91.125 -107.21875 C 95.0625 -107.21875 98.660156 -106.253906 101.921875 -104.328125 C 105.179688 -102.410156 107.769531 -99.820312 109.6875 -96.5625 C 111.613281 -93.300781 112.578125 -89.703125 112.578125 -85.765625 L 112.578125 -21.4375 C 112.578125 -17.601562 111.613281 -14.050781 109.6875 -10.78125 C 107.769531 -7.519531 105.203125 -4.90625 101.984375 -2.9375 C 98.765625 -0.976562 95.144531 0 91.125 0 Z M 26.796875 -85.765625 L 26.796875 -21.4375 L 91.125 -21.4375 L 91.125 -85.765625 Z M 26.796875 -85.765625 "/></g></g></g><g fill="#ffffff" fill-opacity="1"><g transform="translate(1051.208109, 304.790742)"><g><path d="M 26.796875 0 L 5.359375 0 L 5.359375 -96.484375 C 5.359375 -99.429688 6.40625 -101.957031 8.5 -104.0625 C 10.601562 -106.164062 13.128906 -107.21875 16.078125 -107.21875 C 19.023438 -107.21875 21.570312 -106.144531 23.71875 -104 L 91.125 -36.59375 L 91.125 -107.21875 L 112.578125 -107.21875 L 112.578125 -10.71875 C 112.578125 -7.769531 111.523438 -5.242188 109.421875 -3.140625 C 107.328125 -1.046875 104.804688 0 101.859375 0 C 98.898438 0 96.351562 -1.070312 94.21875 -3.21875 L 26.796875 -70.625 Z M 26.796875 0 "/></g></g></g></g></g></svg>